<?xml version="1.0" encoding="utf-8"?>
<!-- Generator: Adobe Illustrator 23.0.1, SVG Export Plug-In . SVG Version: 6.00 Build 0)  -->
<svg version="1.1" id="Solecitou" xmlns="http://www.w3.org/2000/svg"  x="0px" y="0px"
	 viewBox="0 0 392.85 392.85" style="enable-background:new 0 0 392.85 392.85;" xml:space="preserve">

<g id="Capa_1" class="st0">
	<circle class="st1" cx="196.42" cy="196.42" r="231.31"/>
</g>
<g id="Capa_2">
	<polygon class="st2" points="392.85,196.42 274.47,204.18 389.11,234.69 271.5,219.22 377.92,271.63 265.64,233.36 359.73,305.6 
		257.07,246.15 335.32,335.32 246.15,257.07 305.6,359.73 233.36,265.64 271.63,377.92 219.22,271.5 234.69,389.11 204.18,274.47 
		196.42,392.85 188.67,274.47 158.16,389.11 173.63,271.5 121.22,377.92 159.49,265.64 87.25,359.73 146.7,257.07 57.53,335.32 
		135.78,246.15 33.12,305.6 127.21,233.36 14.93,271.63 121.35,219.22 3.74,234.69 118.37,204.18 0,196.42 118.37,188.67 
		3.74,158.16 121.35,173.63 14.93,121.22 127.21,159.49 33.12,87.25 135.78,146.7 57.53,57.53 146.7,135.78 87.25,33.12 
		159.49,127.21 121.22,14.93 173.63,121.35 158.16,3.74 188.67,118.37 196.42,0 204.18,118.37 234.69,3.74 219.22,121.35 
		271.63,14.93 233.36,127.21 305.6,33.12 246.15,135.78 335.32,57.53 257.07,146.7 359.73,87.25 265.64,159.49 377.92,121.22 
		271.5,173.63 389.11,158.16 274.47,188.67 	"/>
</g>
<g id="Capa_3" class="st0">
	<circle class="st3" cx="196.42" cy="196.42" r="17.91"/>
</g>
</svg>
